# xmcd CD database file
#
# Track frame offsets:
#	182
#	2922
#	8985
#	19040
#	27685
#	40055
#	53717
#	66175
#	77575
#	87477
#	95412
#	110340
#	121397
#	132077
#	140365
#	152067
#	169997
#	178710
#	192205
#	205830
#	218877
#
# Disc length: 3222 seconds
#
# Revision: 3
# Processed by: cddbd v1.5.2PL0 Copyright (c) Steve Scherf et al.
# Submitted via: CDex 1.94
#
DISCID=1e0c9415
DTITLE=Willie Nelson - A Classic and Unreleased Collection # 1
DYEAR=1900
DGENRE=Country
TTITLE0=Willie Nelson - Introduction By Willie
TTITLE1=Willie Nelson - No Place For Me
TTITLE2=Willie Nelson - Lumberjack
TTITLE3=Willie Nelson - Why Are You Picking On Me
TTITLE4=Willie Nelson - The Shelter Of Your Arms
TTITLE5=Willie Nelson - Moment Isn't Very Long
TTITLE6=Willie Nelson - Any Old Arms Won't Do
TTITLE7=Willie Nelson - December Day
TTITLE8=Willie Nelson - Healing Hands Of Time
TTITLE9=Willie Nelson - Things To Remember
TTITLE10=Willie Nelson - The Face Of A Fighter
TTITLE11=Willie Nelson - Suffering In Silence
TTITLE12=Willie Nelson - Who Do I Know In Dallas
TTITLE13=Willie Nelson - Slow Down Old World
TTITLE14=Willie Nelson - I Hope So
TTITLE15=Willie Nelson - I Gotta Have Something I Ain't Got
TTITLE16=Willie Nelson - I'm So Ashamed
TTITLE17=Willie Nelson - My Cricket And Me
TTITLE18=Willie Nelson - Both Ends Of The Candle
TTITLE19=Willie Nelson - Slow Down Old World
TTITLE20=Willie Nelson - Under The Double Eagle
EXTD=
EXTT0=
EXTT1=
EXTT2=
EXTT3=
EXTT4=
EXTT5=
EXTT6=
EXTT7=
EXTT8=
EXTT9=
EXTT10=
EXTT11=
EXTT12=
EXTT13=
EXTT14=
EXTT15=
EXTT16=
EXTT17=
EXTT18=
EXTT19=
EXTT20=
PLAYORDER=
